<svg width="20" height="20" viewBox="0 0 20 20" xmlns="http://www.w3.org/2000/svg">
    <path d="M18.491 6.307c-.067 1.595-1.189 3.795-3.365 6.599-2.25 2.912-4.149 4.369-5.696 4.369-.96 0-1.77-.889-2.433-2.666L5.66 9.723c-.486-1.77-1.017-2.655-1.591-2.655-.122 0-.551.256-1.288.77L2 6.845c.162-.142.527-.468 1.095-.979.567-.51 1.007-.9 1.317-1.17 1.055-.933 1.869-1.426 2.443-1.48.642-.06 1.16.127 1.551.562.392.436.666 1.124.821 2.063.297 1.94.52 3.2.669 3.78.372 1.683.777 2.525 1.216 2.525.345 0 .865-.544 1.561-1.632.683-1.088 1.051-1.92 1.105-2.494.088-.939-.28-1.409-1.105-1.409-.385 0-.794.088-1.226.264.81-2.656 2.362-3.946 4.652-3.872 1.696.054 2.494 1.156 2.392 3.304z" fill="#FFF" fill-rule="nonzero"/>
</svg>
