<svg width="20" height="20" viewBox="0 0 20 20" xmlns="http://www.w3.org/2000/svg">
    <path d="M16.114 15.159c.004-.005.01-.01.013-.016A7.961 7.961 0 0 0 18 10a7.97 7.97 0 0 0-1.871-5.143c-.004-.005-.01-.009-.013-.014-.02-.023-.037-.045-.057-.066-.007-.01-.014-.016-.021-.025l-.074-.084-.002-.002-.082-.091-.001-.002a8.256 8.256 0 0 0-.174-.18l-.001-.002-.086-.086-.005-.005a3.19 3.19 0 0 0-.11-.104l-.053-.05-.018-.017A7.962 7.962 0 0 0 10 2a7.97 7.97 0 0 0-5.434 2.129l-.018.017a1.441 1.441 0 0 0-.082.079l-.08.077-.006.005-.085.086-.002.002c-.06.059-.116.12-.173.18l-.002.002c-.029.03-.056.06-.082.09l-.002.003c-.025.026-.05.055-.073.084l-.022.025c-.02.021-.037.044-.057.066l-.012.014A7.969 7.969 0 0 0 2 10a7.97 7.97 0 0 0 1.871 5.143c.004.005.01.01.013.016l.055.066.022.025.073.084.002.004c.027.03.053.06.082.089l.002.002.171.18.002.002c.028.028.055.057.084.084l.005.005A7.985 7.985 0 0 0 10 18a7.97 7.97 0 0 0 5.613-2.3l.005-.005.084-.084.002-.002c.058-.059.116-.12.171-.18l.002-.002.082-.09c0-.001.002-.001.002-.003.025-.027.05-.055.073-.084l.021-.025.06-.066zm.073-2.546a6.706 6.706 0 0 1-.967 1.61 7.93 7.93 0 0 0-1.456-.998 13.35 13.35 0 0 0 .37-2.725h2.562a6.676 6.676 0 0 1-.509 2.113zm.51-3.113h-2.563a13.35 13.35 0 0 0-.37-2.725 7.93 7.93 0 0 0 1.456-.998A6.676 6.676 0 0 1 16.697 9.5zm-4.084-5.688c.708.3 1.353.715 1.92 1.236-.33.282-.685.53-1.06.747-.28-.804-.64-1.502-1.057-2.061.066.025.132.052.197.079zm-1.618 12.511a2.021 2.021 0 0 1-.495.293v-3.312c.713.05 1.404.207 2.066.467a7.74 7.74 0 0 1-.518 1.211c-.31.579-.675 1.041-1.053 1.341zm1.053-11.305c.197.368.37.773.518 1.21a6.948 6.948 0 0 1-2.066.468v-3.31c.164.066.33.162.495.293.378.298.743.76 1.053 1.339zM10.5 12.302V10.5h2.634c-.029.79-.127 1.555-.291 2.282l-.005.022a7.947 7.947 0 0 0-2.338-.502zm0-2.802V7.698a7.947 7.947 0 0 0 2.338-.502l.005.022c.164.727.262 1.49.29 2.282H10.5zm-1 1v1.802a7.947 7.947 0 0 0-2.338.502l-.005-.022a12.383 12.383 0 0 1-.29-2.282H9.5zm-2.634-1c.029-.79.127-1.555.291-2.282l.005-.022a7.934 7.934 0 0 0 2.338.502V9.5H6.866zM9.5 13.304v3.31a1.998 1.998 0 0 1-.495-.293c-.378-.298-.744-.762-1.055-1.34a8.068 8.068 0 0 1-.518-1.211 6.97 6.97 0 0 1 2.068-.466zm0-6.608a6.948 6.948 0 0 1-2.066-.467c.148-.44.32-.845.518-1.211.31-.579.675-1.043 1.055-1.341.164-.129.329-.227.495-.293v3.312H9.5zM7.388 3.813l.196-.08c-.418.56-.777 1.258-1.057 2.062a6.922 6.922 0 0 1-1.06-.747 6.675 6.675 0 0 1 1.92-1.236zM3.813 7.388a6.706 6.706 0 0 1 .967-1.611c.445.384.933.72 1.456.998a13.35 13.35 0 0 0-.37 2.725H3.304c.053-.73.225-1.44.509-2.112zm-.51 3.112h2.563c.034.968.163 1.887.37 2.725a7.93 7.93 0 0 0-1.456.998A6.676 6.676 0 0 1 3.303 10.5zm4.085 5.688a6.675 6.675 0 0 1-1.922-1.236c.33-.282.686-.53 1.06-.747.281.804.64 1.502 1.058 2.061a6.428 6.428 0 0 1-.196-.078zm5.225 0c-.067.026-.13.053-.197.078.418-.559.777-1.257 1.057-2.06.375.214.73.464 1.06.746a6.675 6.675 0 0 1-1.92 1.236z" fill="#FFF" fill-rule="nonzero"/>
</svg>
