<svg width="20" height="20" viewBox="0 0 20 20" xmlns="http://www.w3.org/2000/svg">
    <g fill="#FFF" fill-rule="nonzero">
        <path d="M9.998 5.895A4.099 4.099 0 0 0 5.893 10a4.099 4.099 0 0 0 4.105 4.105A4.099 4.099 0 0 0 14.103 10a4.099 4.099 0 0 0-4.105-4.105zm0 6.773A2.673 2.673 0 0 1 7.33 10a2.673 2.673 0 0 1 2.668-2.668A2.673 2.673 0 0 1 12.666 10a2.673 2.673 0 0 1-2.668 2.668zM14.27 4.77a.957.957 0 1 0 0 1.918c.53 0 .958-.427.958-.959a.957.957 0 0 0-.958-.959z"/>
        <path d="M18 10c0-1.105.01-2.2-.053-3.302-.062-1.281-.354-2.418-1.29-3.355-.94-.938-2.074-1.228-3.355-1.29C12.197 1.99 11.102 2 10 2c-1.105 0-2.2-.01-3.302.052-1.281.062-2.418.354-3.355 1.29-.938.94-1.228 2.074-1.29 3.355C1.99 7.802 2 8.898 2 10c0 1.103-.01 2.2.052 3.302.062 1.28.354 2.418 1.29 3.354.94.939 2.074 1.229 3.355 1.291C7.802 18.01 8.898 18 10 18c1.105 0 2.2.01 3.302-.052 1.28-.062 2.418-.354 3.354-1.29.939-.94 1.229-2.074 1.291-3.355.064-1.103.052-2.197.052-3.302zm-1.762 4.719a2.543 2.543 0 0 1-.604.917 2.56 2.56 0 0 1-.917.604c-1.053.418-3.552.324-4.72.324-1.166 0-3.668.094-4.72-.322a2.543 2.543 0 0 1-.917-.604 2.56 2.56 0 0 1-.604-.917c-.417-1.055-.322-3.554-.322-4.721 0-1.167-.095-3.669.322-4.721.146-.364.322-.637.604-.917s.553-.458.917-.604c1.052-.417 3.554-.322 4.72-.322 1.168 0 3.67-.095 4.722.322.364.146.636.322.917.604.282.282.458.553.604.917.416 1.052.322 3.554.322 4.72 0 1.168.094 3.667-.324 4.72z"/>
    </g>
</svg>
